<?xml version="1.0" encoding="utf-8"?>
<!--Designed by Vexels.com - 2017 All Rights Reserved - https://vexels.com/terms-and-conditions/-->
<svg version="1.1" id="Layer_1" xmlns="http://www.w3.org/2000/svg" xmlns:xlink="http://www.w3.org/1999/xlink" x="0px" y="0px"
	 viewBox="0 0 1200 1200" enable-background="new 0 0 1200 1200" xml:space="preserve">
<g>
	<path fill="#F4C503" d="M342.257,1150H857.72v-77.193H342.257V1150z M819.597,317.988c-69.701,0-134.113,22.536-186.445,60.643
		v-178.5h128.631V142.16H633.152V50H575.17v92.16H446.565v57.971H575.17V384.96c-53.746-41.924-121.287-66.972-194.768-66.972
		c-175.29,0-317.352,142.087-317.352,317.361c0,162.357,121.922,296.146,279.207,314.998v67.934H857.72v-67.928
		c157.289-18.841,279.229-152.639,279.229-315.004C1136.949,460.074,994.883,317.988,819.597,317.988z"/>
	<g opacity="0.4">
		<rect x="606.268" y="1072.807" fill="#FFFFFF" width="251.452" height="77.193"/>
		<path fill="#FFFFFF" d="M819.597,317.988c-69.701,0-134.113,22.536-186.445,60.643v-178.5h128.631V142.16H633.152V50h-26.884
			v968.281H857.72v-67.928c157.289-18.841,279.229-152.639,279.229-315.004C1136.949,460.074,994.883,317.988,819.597,317.988z"/>
	</g>
</g>
</svg>
